<?xml version="1.0" encoding="UTF-8" standalone="no"?>
<!DOCTYPE svg PUBLIC "-//W3C//DTD SVG 1.1//EN"
 "http://www.w3.org/Graphics/SVG/1.1/DTD/svg11.dtd">
<!-- Generated by graphviz version 2.40.1 (20161225.0304)
 -->
<!-- Title: dependencies Pages: 1 -->
<svg width="796pt" height="284pt"
 viewBox="0.00 0.00 796.00 284.00" xmlns="http://www.w3.org/2000/svg" xmlns:xlink="http://www.w3.org/1999/xlink">
<g id="graph0" class="graph" transform="scale(1 1) rotate(0) translate(4 280)">
<title>dependencies</title>
<polygon fill="#ffffff" stroke="transparent" points="-4,4 -4,-280 792,-280 792,4 -4,4"/>
<text text-anchor="start" x="373.0091" y="-42.4" font-family="sans-serif" font-weight="bold" font-size="14.00" fill="#000000">Legend</text>
<polygon fill="#ffffb3" stroke="transparent" points="160,-10 160,-30 180,-30 180,-10 160,-10"/>
<text text-anchor="start" x="183.629" y="-15.4" font-family="sans-serif" font-size="14.00" fill="#000000"> &#160;Declarations</text>
<polygon fill="#8dd3c7" stroke="transparent" points="273,-10 273,-30 293,-30 293,-10 273,-10"/>
<text text-anchor="start" x="296.7251" y="-15.4" font-family="sans-serif" font-size="14.00" fill="#000000"> &#160;Module</text>
<polygon fill="#80b1d3" stroke="transparent" points="359,-10 359,-30 379,-30 379,-10 359,-10"/>
<text text-anchor="start" x="382.7812" y="-15.4" font-family="sans-serif" font-size="14.00" fill="#000000"> &#160;Bootstrap</text>
<polygon fill="#fdb462" stroke="transparent" points="456,-10 456,-30 476,-30 476,-10 456,-10"/>
<text text-anchor="start" x="479.6732" y="-15.4" font-family="sans-serif" font-size="14.00" fill="#000000"> &#160;Providers</text>
<polygon fill="#fb8072" stroke="transparent" points="552,-10 552,-30 572,-30 572,-10 552,-10"/>
<text text-anchor="start" x="575.7258" y="-15.4" font-family="sans-serif" font-size="14.00" fill="#000000"> &#160;Exports</text>
<g id="clust1" class="cluster">
<title>cluster_MenuModule</title>
<polygon fill="none" stroke="#000000" stroke-dasharray="1,5" points="8,-70 8,-268 780,-268 780,-70 8,-70"/>
</g>
<g id="clust2" class="cluster">
<title>cluster_MenuModule_declarations</title>
<polygon fill="none" stroke="#000000" points="126,-78 126,-130 772,-130 772,-78 126,-78"/>
</g>
<g id="clust7" class="cluster">
<title>cluster_MenuModule_imports</title>
<polygon fill="none" stroke="#000000" points="16,-78 16,-130 118,-130 118,-78 16,-78"/>
</g>
<g id="clust8" class="cluster">
<title>cluster_MenuModule_exports</title>
<polygon fill="none" stroke="#000000" points="314,-208 314,-260 448,-260 448,-208 314,-208"/>
</g>
<!-- MenuComponent -->
<g id="node1" class="node">
<title>MenuComponent</title>
<polygon fill="#ffffb3" stroke="#000000" points="763.9916,-122 650.0084,-122 650.0084,-86 763.9916,-86 763.9916,-122"/>
<text text-anchor="middle" x="707" y="-99.8" font-family="Times,serif" font-size="14.00" fill="#000000">MenuComponent</text>
</g>
<!-- MenuModule -->
<g id="node5" class="node">
<title>MenuModule</title>
<polygon fill="#8dd3c7" stroke="#000000" points="427.2092,-187 424.2092,-191 403.2092,-191 400.2092,-187 334.7908,-187 334.7908,-151 427.2092,-151 427.2092,-187"/>
<text text-anchor="middle" x="381" y="-164.8" font-family="Times,serif" font-size="14.00" fill="#000000">MenuModule</text>
</g>
<!-- MenuComponent&#45;&gt;MenuModule -->
<g id="edge1" class="edge">
<title>MenuComponent&#45;&gt;MenuModule</title>
<path fill="none" stroke="#000000" d="M707,-122.2843C707,-143.3211 707,-175 707,-175 707,-175 437.3616,-175 437.3616,-175"/>
<polygon fill="#000000" stroke="#000000" points="437.3617,-171.5001 427.3616,-175 437.3616,-178.5001 437.3617,-171.5001"/>
</g>
<!-- MenuContentComponent -->
<g id="node2" class="node">
<title>MenuContentComponent</title>
<polygon fill="#ffffb3" stroke="#000000" points="632.3243,-122 473.6757,-122 473.6757,-86 632.3243,-86 632.3243,-122"/>
<text text-anchor="middle" x="553" y="-99.8" font-family="Times,serif" font-size="14.00" fill="#000000">MenuContentComponent</text>
</g>
<!-- MenuContentComponent&#45;&gt;MenuModule -->
<g id="edge2" class="edge">
<title>MenuContentComponent&#45;&gt;MenuModule</title>
<path fill="none" stroke="#000000" d="M553,-122.0225C553,-139.3734 553,-163 553,-163 553,-163 437.5457,-163 437.5457,-163"/>
<polygon fill="#000000" stroke="#000000" points="437.5457,-159.5001 427.5457,-163 437.5456,-166.5001 437.5457,-159.5001"/>
</g>
<!-- MenuFooterComponent -->
<g id="node3" class="node">
<title>MenuFooterComponent</title>
<polygon fill="#ffffb3" stroke="#000000" points="456.0407,-122 305.9593,-122 305.9593,-86 456.0407,-86 456.0407,-122"/>
<text text-anchor="middle" x="381" y="-99.8" font-family="Times,serif" font-size="14.00" fill="#000000">MenuFooterComponent</text>
</g>
<!-- MenuFooterComponent&#45;&gt;MenuModule -->
<g id="edge3" class="edge">
<title>MenuFooterComponent&#45;&gt;MenuModule</title>
<path fill="none" stroke="#000000" d="M381,-122.1061C381,-122.1061 381,-140.991 381,-140.991"/>
<polygon fill="#000000" stroke="#000000" points="377.5001,-140.9909 381,-150.991 384.5001,-140.991 377.5001,-140.9909"/>
</g>
<!-- MenuHeaderComponent -->
<g id="node4" class="node">
<title>MenuHeaderComponent</title>
<polygon fill="#ffffb3" stroke="#000000" points="288.4031,-122 133.5969,-122 133.5969,-86 288.4031,-86 288.4031,-122"/>
<text text-anchor="middle" x="211" y="-99.8" font-family="Times,serif" font-size="14.00" fill="#000000">MenuHeaderComponent</text>
</g>
<!-- MenuHeaderComponent&#45;&gt;MenuModule -->
<g id="edge4" class="edge">
<title>MenuHeaderComponent&#45;&gt;MenuModule</title>
<path fill="none" stroke="#000000" d="M211,-122.0225C211,-139.3734 211,-163 211,-163 211,-163 324.5468,-163 324.5468,-163"/>
<polygon fill="#000000" stroke="#000000" points="324.5468,-166.5001 334.5468,-163 324.5467,-159.5001 324.5468,-166.5001"/>
</g>
<!-- MenuComponent  -->
<g id="node7" class="node">
<title>MenuComponent </title>
<polygon fill="#fb8072" stroke="#000000" points="439.9926,-252 322.0074,-252 322.0074,-216 439.9926,-216 439.9926,-252"/>
<text text-anchor="middle" x="381" y="-229.8" font-family="Times,serif" font-size="14.00" fill="#000000">MenuComponent </text>
</g>
<!-- MenuModule&#45;&gt;MenuComponent  -->
<g id="edge6" class="edge">
<title>MenuModule&#45;&gt;MenuComponent </title>
<path fill="none" stroke="#000000" stroke-dasharray="5,2" d="M381,-187.1061C381,-187.1061 381,-205.991 381,-205.991"/>
<polygon fill="#000000" stroke="#000000" points="377.5001,-205.9909 381,-215.991 384.5001,-205.991 377.5001,-205.9909"/>
</g>
<!-- AtosModule -->
<g id="node6" class="node">
<title>AtosModule</title>
<polygon fill="#8dd3c7" stroke="#000000" points="109.9916,-122 106.9916,-126 85.9916,-126 82.9916,-122 24.0084,-122 24.0084,-86 109.9916,-86 109.9916,-122"/>
<text text-anchor="middle" x="67" y="-99.8" font-family="Times,serif" font-size="14.00" fill="#000000">AtosModule</text>
</g>
<!-- AtosModule&#45;&gt;MenuModule -->
<g id="edge5" class="edge">
<title>AtosModule&#45;&gt;MenuModule</title>
<path fill="none" stroke="#000000" d="M67,-122.2843C67,-143.3211 67,-175 67,-175 67,-175 324.6682,-175 324.6682,-175"/>
<polygon fill="#000000" stroke="#000000" points="324.6683,-178.5001 334.6682,-175 324.6682,-171.5001 324.6683,-178.5001"/>
</g>
</g>
</svg>
