<?xml version="1.0" encoding="UTF-8" standalone="no"?>
<!DOCTYPE svg PUBLIC "-//W3C//DTD SVG 1.1//EN"
 "http://www.w3.org/Graphics/SVG/1.1/DTD/svg11.dtd">
<!-- Generated by graphviz version 2.40.1 (20161225.0304)
 -->
<!-- Title: dependencies Pages: 1 -->
<svg width="1693pt" height="284pt"
 viewBox="0.00 0.00 1693.00 284.00" xmlns="http://www.w3.org/2000/svg" xmlns:xlink="http://www.w3.org/1999/xlink">
<g id="graph0" class="graph" transform="scale(1 1) rotate(0) translate(4 280)">
<title>dependencies</title>
<polygon fill="#ffffff" stroke="transparent" points="-4,4 -4,-280 1689,-280 1689,4 -4,4"/>
<text text-anchor="start" x="821.5091" y="-42.4" font-family="sans-serif" font-weight="bold" font-size="14.00" fill="#000000">Legend</text>
<polygon fill="#ffffb3" stroke="transparent" points="608.5,-10 608.5,-30 628.5,-30 628.5,-10 608.5,-10"/>
<text text-anchor="start" x="632.129" y="-15.4" font-family="sans-serif" font-size="14.00" fill="#000000"> &#160;Declarations</text>
<polygon fill="#8dd3c7" stroke="transparent" points="721.5,-10 721.5,-30 741.5,-30 741.5,-10 721.5,-10"/>
<text text-anchor="start" x="745.2251" y="-15.4" font-family="sans-serif" font-size="14.00" fill="#000000"> &#160;Module</text>
<polygon fill="#80b1d3" stroke="transparent" points="807.5,-10 807.5,-30 827.5,-30 827.5,-10 807.5,-10"/>
<text text-anchor="start" x="831.2812" y="-15.4" font-family="sans-serif" font-size="14.00" fill="#000000"> &#160;Bootstrap</text>
<polygon fill="#fdb462" stroke="transparent" points="904.5,-10 904.5,-30 924.5,-30 924.5,-10 904.5,-10"/>
<text text-anchor="start" x="928.1732" y="-15.4" font-family="sans-serif" font-size="14.00" fill="#000000"> &#160;Providers</text>
<polygon fill="#fb8072" stroke="transparent" points="1000.5,-10 1000.5,-30 1020.5,-30 1020.5,-10 1000.5,-10"/>
<text text-anchor="start" x="1024.2258" y="-15.4" font-family="sans-serif" font-size="14.00" fill="#000000"> &#160;Exports</text>
<g id="clust1" class="cluster">
<title>cluster_MainModule</title>
<polygon fill="none" stroke="#000000" stroke-dasharray="1,5" points="8,-70 8,-268 1677,-268 1677,-70 8,-70"/>
</g>
<g id="clust2" class="cluster">
<title>cluster_MainModule_declarations</title>
<polygon fill="none" stroke="#000000" points="126,-78 126,-130 1669,-130 1669,-78 126,-78"/>
</g>
<g id="clust12" class="cluster">
<title>cluster_MainModule_imports</title>
<polygon fill="none" stroke="#000000" points="16,-78 16,-130 118,-130 118,-78 16,-78"/>
</g>
<g id="clust13" class="cluster">
<title>cluster_MainModule_exports</title>
<polygon fill="none" stroke="#000000" points="783,-208 783,-260 913,-260 913,-208 783,-208"/>
</g>
<!-- MainChatComponent -->
<g id="node1" class="node">
<title>MainChatComponent</title>
<polygon fill="#ffffb3" stroke="#000000" points="1660.8244,-122 1523.1756,-122 1523.1756,-86 1660.8244,-86 1660.8244,-122"/>
<text text-anchor="middle" x="1592" y="-99.8" font-family="Times,serif" font-size="14.00" fill="#000000">MainChatComponent</text>
</g>
<!-- MainModule -->
<g id="node10" class="node">
<title>MainModule</title>
<polygon fill="#8dd3c7" stroke="#000000" points="892.5997,-187 889.5997,-191 868.5997,-191 865.5997,-187 803.4003,-187 803.4003,-151 892.5997,-151 892.5997,-187"/>
<text text-anchor="middle" x="848" y="-164.8" font-family="Times,serif" font-size="14.00" fill="#000000">MainModule</text>
</g>
<!-- MainChatComponent&#45;&gt;MainModule -->
<g id="edge1" class="edge">
<title>MainChatComponent&#45;&gt;MainModule</title>
<path fill="none" stroke="#000000" d="M1592,-122.0109C1592,-144.4852 1592,-180 1592,-180 1592,-180 902.5884,-180 902.5884,-180"/>
<polygon fill="#000000" stroke="#000000" points="902.5884,-176.5001 892.5884,-180 902.5884,-183.5001 902.5884,-176.5001"/>
</g>
<!-- MainChatListComponent -->
<g id="node2" class="node">
<title>MainChatListComponent</title>
<polygon fill="#ffffb3" stroke="#000000" points="1505.6024,-122 1346.3976,-122 1346.3976,-86 1505.6024,-86 1505.6024,-122"/>
<text text-anchor="middle" x="1426" y="-99.8" font-family="Times,serif" font-size="14.00" fill="#000000">MainChatListComponent</text>
</g>
<!-- MainChatListComponent&#45;&gt;MainModule -->
<g id="edge2" class="edge">
<title>MainChatListComponent&#45;&gt;MainModule</title>
<path fill="none" stroke="#000000" d="M1426,-122.1289C1426,-142.5724 1426,-173 1426,-173 1426,-173 902.8737,-173 902.8737,-173"/>
<polygon fill="#000000" stroke="#000000" points="902.8738,-169.5001 892.8737,-173 902.8737,-176.5001 902.8738,-169.5001"/>
</g>
<!-- MainChatListItemComponent -->
<g id="node3" class="node">
<title>MainChatListItemComponent</title>
<polygon fill="#ffffb3" stroke="#000000" points="1328.259,-122 1143.741,-122 1143.741,-86 1328.259,-86 1328.259,-122"/>
<text text-anchor="middle" x="1236" y="-99.8" font-family="Times,serif" font-size="14.00" fill="#000000">MainChatListItemComponent</text>
</g>
<!-- MainChatListItemComponent&#45;&gt;MainModule -->
<g id="edge3" class="edge">
<title>MainChatListItemComponent&#45;&gt;MainModule</title>
<path fill="none" stroke="#000000" d="M1236,-122.2667C1236,-140.5552 1236,-166 1236,-166 1236,-166 902.8876,-166 902.8876,-166"/>
<polygon fill="#000000" stroke="#000000" points="902.8876,-162.5001 892.8876,-166 902.8875,-169.5001 902.8876,-162.5001"/>
</g>
<!-- MainComponent -->
<g id="node4" class="node">
<title>MainComponent</title>
<polygon fill="#ffffb3" stroke="#000000" points="1125.3823,-122 1014.6177,-122 1014.6177,-86 1125.3823,-86 1125.3823,-122"/>
<text text-anchor="middle" x="1070" y="-99.8" font-family="Times,serif" font-size="14.00" fill="#000000">MainComponent</text>
</g>
<!-- MainComponent&#45;&gt;MainModule -->
<g id="edge4" class="edge">
<title>MainComponent&#45;&gt;MainModule</title>
<path fill="none" stroke="#000000" d="M1070,-122.0091C1070,-138.0494 1070,-159 1070,-159 1070,-159 902.658,-159 902.658,-159"/>
<polygon fill="#000000" stroke="#000000" points="902.658,-155.5001 892.658,-159 902.6579,-162.5001 902.658,-155.5001"/>
</g>
<!-- MainEditComponent -->
<g id="node5" class="node">
<title>MainEditComponent</title>
<polygon fill="#ffffb3" stroke="#000000" points="996.2162,-122 861.7838,-122 861.7838,-86 996.2162,-86 996.2162,-122"/>
<text text-anchor="middle" x="929" y="-99.8" font-family="Times,serif" font-size="14.00" fill="#000000">MainEditComponent</text>
</g>
<!-- MainEditComponent&#45;&gt;MainModule -->
<g id="edge5" class="edge">
<title>MainEditComponent&#45;&gt;MainModule</title>
<path fill="none" stroke="#000000" d="M877.2209,-122.1061C877.2209,-122.1061 877.2209,-140.991 877.2209,-140.991"/>
<polygon fill="#000000" stroke="#000000" points="873.721,-140.9909 877.2209,-150.991 880.721,-140.991 873.721,-140.9909"/>
</g>
<!-- MainHeaderComponent -->
<g id="node6" class="node">
<title>MainHeaderComponent</title>
<polygon fill="#ffffb3" stroke="#000000" points="843.7935,-122 692.2065,-122 692.2065,-86 843.7935,-86 843.7935,-122"/>
<text text-anchor="middle" x="768" y="-99.8" font-family="Times,serif" font-size="14.00" fill="#000000">MainHeaderComponent</text>
</g>
<!-- MainHeaderComponent&#45;&gt;MainModule -->
<g id="edge6" class="edge">
<title>MainHeaderComponent&#45;&gt;MainModule</title>
<path fill="none" stroke="#000000" d="M823.5484,-122.1061C823.5484,-122.1061 823.5484,-140.991 823.5484,-140.991"/>
<polygon fill="#000000" stroke="#000000" points="820.0485,-140.9909 823.5484,-150.991 827.0485,-140.991 820.0485,-140.9909"/>
</g>
<!-- MainStatusComponent -->
<g id="node7" class="node">
<title>MainStatusComponent</title>
<polygon fill="#ffffb3" stroke="#000000" points="674.6052,-122 529.3948,-122 529.3948,-86 674.6052,-86 674.6052,-122"/>
<text text-anchor="middle" x="602" y="-99.8" font-family="Times,serif" font-size="14.00" fill="#000000">MainStatusComponent</text>
</g>
<!-- MainStatusComponent&#45;&gt;MainModule -->
<g id="edge7" class="edge">
<title>MainStatusComponent&#45;&gt;MainModule</title>
<path fill="none" stroke="#000000" d="M602,-122.0091C602,-138.0494 602,-159 602,-159 602,-159 793.1659,-159 793.1659,-159"/>
<polygon fill="#000000" stroke="#000000" points="793.1659,-162.5001 803.1659,-159 793.1658,-155.5001 793.1659,-162.5001"/>
</g>
<!-- MainStatusListComponent -->
<g id="node8" class="node">
<title>MainStatusListComponent</title>
<polygon fill="#ffffb3" stroke="#000000" points="511.3836,-122 344.6164,-122 344.6164,-86 511.3836,-86 511.3836,-122"/>
<text text-anchor="middle" x="428" y="-99.8" font-family="Times,serif" font-size="14.00" fill="#000000">MainStatusListComponent</text>
</g>
<!-- MainStatusListComponent&#45;&gt;MainModule -->
<g id="edge8" class="edge">
<title>MainStatusListComponent&#45;&gt;MainModule</title>
<path fill="none" stroke="#000000" d="M428,-122.2667C428,-140.5552 428,-166 428,-166 428,-166 793.0526,-166 793.0526,-166"/>
<polygon fill="#000000" stroke="#000000" points="793.0527,-169.5001 803.0526,-166 793.0526,-162.5001 793.0527,-169.5001"/>
</g>
<!-- MainStatusListItemComponent -->
<g id="node9" class="node">
<title>MainStatusListItemComponent</title>
<polygon fill="#ffffb3" stroke="#000000" points="326.0405,-122 133.9595,-122 133.9595,-86 326.0405,-86 326.0405,-122"/>
<text text-anchor="middle" x="230" y="-99.8" font-family="Times,serif" font-size="14.00" fill="#000000">MainStatusListItemComponent</text>
</g>
<!-- MainStatusListItemComponent&#45;&gt;MainModule -->
<g id="edge9" class="edge">
<title>MainStatusListItemComponent&#45;&gt;MainModule</title>
<path fill="none" stroke="#000000" d="M230,-122.1289C230,-142.5724 230,-173 230,-173 230,-173 793.3064,-173 793.3064,-173"/>
<polygon fill="#000000" stroke="#000000" points="793.3064,-176.5001 803.3064,-173 793.3063,-169.5001 793.3064,-176.5001"/>
</g>
<!-- MainComponent  -->
<g id="node12" class="node">
<title>MainComponent </title>
<polygon fill="#fb8072" stroke="#000000" points="905.3828,-252 790.6172,-252 790.6172,-216 905.3828,-216 905.3828,-252"/>
<text text-anchor="middle" x="848" y="-229.8" font-family="Times,serif" font-size="14.00" fill="#000000">MainComponent </text>
</g>
<!-- MainModule&#45;&gt;MainComponent  -->
<g id="edge11" class="edge">
<title>MainModule&#45;&gt;MainComponent </title>
<path fill="none" stroke="#000000" stroke-dasharray="5,2" d="M848,-187.1061C848,-187.1061 848,-205.991 848,-205.991"/>
<polygon fill="#000000" stroke="#000000" points="844.5001,-205.9909 848,-215.991 851.5001,-205.991 844.5001,-205.9909"/>
</g>
<!-- AtosModule -->
<g id="node11" class="node">
<title>AtosModule</title>
<polygon fill="#8dd3c7" stroke="#000000" points="109.9916,-122 106.9916,-126 85.9916,-126 82.9916,-122 24.0084,-122 24.0084,-86 109.9916,-86 109.9916,-122"/>
<text text-anchor="middle" x="67" y="-99.8" font-family="Times,serif" font-size="14.00" fill="#000000">AtosModule</text>
</g>
<!-- AtosModule&#45;&gt;MainModule -->
<g id="edge10" class="edge">
<title>AtosModule&#45;&gt;MainModule</title>
<path fill="none" stroke="#000000" d="M67,-122.0109C67,-144.4852 67,-180 67,-180 67,-180 793.2049,-180 793.2049,-180"/>
<polygon fill="#000000" stroke="#000000" points="793.205,-183.5001 803.2049,-180 793.2049,-176.5001 793.205,-183.5001"/>
</g>
</g>
</svg>
