<?xml version="1.0" encoding="UTF-8" standalone="no"?>
<!DOCTYPE svg PUBLIC "-//W3C//DTD SVG 1.1//EN"
 "http://www.w3.org/Graphics/SVG/1.1/DTD/svg11.dtd">
<!-- Generated by graphviz version 2.40.1 (20161225.0304)
 -->
<!-- Title: dependencies Pages: 1 -->
<svg width="504pt" height="284pt"
 viewBox="0.00 0.00 504.00 284.00" xmlns="http://www.w3.org/2000/svg" xmlns:xlink="http://www.w3.org/1999/xlink">
<g id="graph0" class="graph" transform="scale(1 1) rotate(0) translate(4 280)">
<title>dependencies</title>
<polygon fill="#ffffff" stroke="transparent" points="-4,4 -4,-280 500,-280 500,4 -4,4"/>
<text text-anchor="start" x="227.0091" y="-42.4" font-family="sans-serif" font-weight="bold" font-size="14.00" fill="#000000">Legend</text>
<polygon fill="#ffffb3" stroke="transparent" points="14,-10 14,-30 34,-30 34,-10 14,-10"/>
<text text-anchor="start" x="37.629" y="-15.4" font-family="sans-serif" font-size="14.00" fill="#000000"> &#160;Declarations</text>
<polygon fill="#8dd3c7" stroke="transparent" points="127,-10 127,-30 147,-30 147,-10 127,-10"/>
<text text-anchor="start" x="150.7251" y="-15.4" font-family="sans-serif" font-size="14.00" fill="#000000"> &#160;Module</text>
<polygon fill="#80b1d3" stroke="transparent" points="213,-10 213,-30 233,-30 233,-10 213,-10"/>
<text text-anchor="start" x="236.7812" y="-15.4" font-family="sans-serif" font-size="14.00" fill="#000000"> &#160;Bootstrap</text>
<polygon fill="#fdb462" stroke="transparent" points="310,-10 310,-30 330,-30 330,-10 310,-10"/>
<text text-anchor="start" x="333.6732" y="-15.4" font-family="sans-serif" font-size="14.00" fill="#000000"> &#160;Providers</text>
<polygon fill="#fb8072" stroke="transparent" points="406,-10 406,-30 426,-30 426,-10 406,-10"/>
<text text-anchor="start" x="429.7258" y="-15.4" font-family="sans-serif" font-size="14.00" fill="#000000"> &#160;Exports</text>
<g id="clust1" class="cluster">
<title>cluster_AppModule</title>
<polygon fill="none" stroke="#000000" stroke-dasharray="1,5" points="15,-70 15,-268 481,-268 481,-70 15,-70"/>
</g>
<g id="clust2" class="cluster">
<title>cluster_AppModule_declarations</title>
<polygon fill="none" stroke="#000000" points="351,-78 351,-130 473,-130 473,-78 351,-78"/>
</g>
<g id="clust4" class="cluster">
<title>cluster_AppModule_imports</title>
<polygon fill="none" stroke="#000000" points="23,-78 23,-130 343,-130 343,-78 23,-78"/>
</g>
<g id="clust6" class="cluster">
<title>cluster_AppModule_bootstrap</title>
<polygon fill="none" stroke="#000000" points="177,-208 177,-260 301,-260 301,-208 177,-208"/>
</g>
<!-- AppComponent -->
<g id="node1" class="node">
<title>AppComponent</title>
<polygon fill="#ffffb3" stroke="#000000" points="464.9399,-122 359.0601,-122 359.0601,-86 464.9399,-86 464.9399,-122"/>
<text text-anchor="middle" x="412" y="-99.8" font-family="Times,serif" font-size="14.00" fill="#000000">AppComponent</text>
</g>
<!-- AppModule -->
<g id="node2" class="node">
<title>AppModule</title>
<polygon fill="#8dd3c7" stroke="#000000" points="280.6571,-187 277.6571,-191 256.6571,-191 253.6571,-187 197.3429,-187 197.3429,-151 280.6571,-151 280.6571,-187"/>
<text text-anchor="middle" x="239" y="-164.8" font-family="Times,serif" font-size="14.00" fill="#000000">AppModule</text>
</g>
<!-- AppComponent&#45;&gt;AppModule -->
<g id="edge1" class="edge">
<title>AppComponent&#45;&gt;AppModule</title>
<path fill="none" stroke="#000000" d="M412,-122.1061C412,-141.3391 412,-169 412,-169 412,-169 290.8785,-169 290.8785,-169"/>
<polygon fill="#000000" stroke="#000000" points="290.8785,-165.5001 280.8785,-169 290.8784,-172.5001 290.8785,-165.5001"/>
</g>
<!-- AppComponent  -->
<g id="node6" class="node">
<title>AppComponent </title>
<polygon fill="#80b1d3" stroke="#000000" points="293.439,-252 184.561,-252 184.561,-216 293.439,-216 293.439,-252"/>
<text text-anchor="middle" x="239" y="-229.8" font-family="Times,serif" font-size="14.00" fill="#000000">AppComponent </text>
</g>
<!-- AppModule&#45;&gt;AppComponent  -->
<g id="edge5" class="edge">
<title>AppModule&#45;&gt;AppComponent </title>
<path fill="none" stroke="#000000" stroke-dasharray="1,5" d="M239,-187.1061C239,-187.1061 239,-205.991 239,-205.991"/>
<polygon fill="#000000" stroke="#000000" points="235.5001,-205.9909 239,-215.991 242.5001,-205.991 235.5001,-205.9909"/>
</g>
<!-- AtosModule -->
<g id="node3" class="node">
<title>AtosModule</title>
<polygon fill="#8dd3c7" stroke="#000000" points="334.9916,-122 331.9916,-126 310.9916,-126 307.9916,-122 249.0084,-122 249.0084,-86 334.9916,-86 334.9916,-122"/>
<text text-anchor="middle" x="292" y="-99.8" font-family="Times,serif" font-size="14.00" fill="#000000">AtosModule</text>
</g>
<!-- AtosModule&#45;&gt;AppModule -->
<g id="edge2" class="edge">
<title>AtosModule&#45;&gt;AppModule</title>
<path fill="none" stroke="#000000" d="M264.9162,-122.1061C264.9162,-122.1061 264.9162,-140.991 264.9162,-140.991"/>
<polygon fill="#000000" stroke="#000000" points="261.4163,-140.9909 264.9162,-150.991 268.4163,-140.991 261.4163,-140.9909"/>
</g>
<!-- MainModule -->
<g id="node4" class="node">
<title>MainModule</title>
<polygon fill="#8dd3c7" stroke="#000000" points="230.5997,-122 227.5997,-126 206.5997,-126 203.5997,-122 141.4003,-122 141.4003,-86 230.5997,-86 230.5997,-122"/>
<text text-anchor="middle" x="186" y="-99.8" font-family="Times,serif" font-size="14.00" fill="#000000">MainModule</text>
</g>
<!-- MainModule&#45;&gt;AppModule -->
<g id="edge3" class="edge">
<title>MainModule&#45;&gt;AppModule</title>
<path fill="none" stroke="#000000" d="M213.8608,-122.1061C213.8608,-122.1061 213.8608,-140.991 213.8608,-140.991"/>
<polygon fill="#000000" stroke="#000000" points="210.3609,-140.9909 213.8608,-150.991 217.3609,-140.991 210.3609,-140.9909"/>
</g>
<!-- MenuModule -->
<g id="node5" class="node">
<title>MenuModule</title>
<polygon fill="#8dd3c7" stroke="#000000" points="123.2092,-122 120.2092,-126 99.2092,-126 96.2092,-122 30.7908,-122 30.7908,-86 123.2092,-86 123.2092,-122"/>
<text text-anchor="middle" x="77" y="-99.8" font-family="Times,serif" font-size="14.00" fill="#000000">MenuModule</text>
</g>
<!-- MenuModule&#45;&gt;AppModule -->
<g id="edge4" class="edge">
<title>MenuModule&#45;&gt;AppModule</title>
<path fill="none" stroke="#000000" d="M77,-122.1061C77,-141.3391 77,-169 77,-169 77,-169 187.281,-169 187.281,-169"/>
<polygon fill="#000000" stroke="#000000" points="187.281,-172.5001 197.281,-169 187.2809,-165.5001 187.281,-172.5001"/>
</g>
</g>
</svg>
